<svg xmlns="http://www.w3.org/2000/svg" viewBox="0 0 1048.45 392.4"><title>burger-shape</title><g id="Calque_2" data-name="Calque 2"><g id="Calque_1-2" data-name="Calque 1"><path d="M1033.14,85.7C1008,81.05,1009.92,60,984.34,60s-25.57,25.91-51.15,25.91S907.61,60,882,60s-25.58,25.91-51.16,25.91S805.29,60,779.72,60s-25.59,25.79-51,25.91c-25.41-.12-25.47-25.91-51-25.91s-25.58,25.91-51.16,25.91S601,60,575.42,60s-25.58,25.91-51.16,25.91S498.69,60,473.11,60H473c-25.58,0-25.58,25.91-51.16,25.91S396.29,60,370.72,60s-25.59,25.79-51,25.91c-25.41-.12-25.47-25.91-51-25.91s-25.58,25.91-51.16,25.91S192,60,166.42,60s-25.58,25.91-51.16,25.91S89.69,60,64.11,60s-23.65,21-48.8,25.7C10.66,86.56,0,77.68,0,82.41l10.61,69.4c25.15,4.64,23.36-19.42,50.74-25.4,25-5.47,28.35,25.61,53.94,25.61s25.58-25.91,51.15-25.91S192,152,217.6,152s25.58-25.91,51.16-25.91,25.59,25.64,50.78,25.9h.38c25.19-.26,25.32-25.9,50.77-25.9S396.27,152,421.85,152c24.66,0,25.55-24.08,48.51-25.81v.2c.5-.11,1-.18,1.47-.26s.78,0,1.19,0c25.58,0,25.58,25.91,51.16,25.91h.12c25.58,0,25.58-25.91,51.15-25.91S601,152,626.6,152s25.58-25.91,51.16-25.91,25.59,25.64,50.78,25.9h.38c25.19-.26,25.32-25.9,50.77-25.9S805.27,152,830.85,152s25.58-25.91,51.16-25.91S907.59,152,933.17,152s28.94-31.08,53.93-25.61c27.39,6,25.59,30,50.75,25.4l10.6-69.4C1048.45,77.68,1037.79,86.56,1033.14,85.7Z" fill="#b1e319"/><path d="M1033.14,145.7c-25.15-4.65-23.22-25.7-48.8-25.7s-25.57,25.91-51.15,25.91S907.61,120,882,120s-25.58,25.91-51.16,25.91S805.29,120,779.72,120s-25.59,25.79-51,25.91c-25.41-.12-25.47-25.91-51-25.91s-25.58,25.91-51.16,25.91S601,120,575.42,120s-25.58,25.91-51.16,25.91S498.69,120,473.11,120H473c-25.58,0-25.58,25.91-51.16,25.91S396.29,120,370.72,120s-25.59,25.79-51,25.91c-25.41-.12-25.47-25.91-51-25.91s-25.58,25.91-51.16,25.91S192,120,166.42,120s-25.58,25.91-51.16,25.91S89.69,120,64.11,120s-23.65,21.05-48.8,25.7c-4.65.86-15.31-8-15.31-3.29l10.61,69.4c25.15,4.64,23.36-19.42,50.74-25.4,25-5.47,28.35,25.61,53.94,25.61s25.58-25.91,51.15-25.91S192,212,217.6,212s25.58-25.91,51.16-25.91,25.59,25.64,50.78,25.9h.38c25.19-.26,25.32-25.9,50.77-25.9S396.27,212,421.85,212c24.66,0,25.55-24.08,48.51-25.81v.2c.5-.11,1-.18,1.47-.26s.78,0,1.19,0c25.58,0,25.58,25.91,51.16,25.91h.12c25.58,0,25.58-25.91,51.15-25.91S601,212,626.6,212s25.58-25.91,51.16-25.91,25.59,25.64,50.78,25.9h.38c25.19-.26,25.32-25.9,50.77-25.9S805.27,212,830.85,212s25.58-25.91,51.16-25.91S907.59,212,933.17,212s28.94-31.08,53.93-25.61c27.39,6,25.59,30,50.75,25.4l10.6-69.4C1048.45,137.68,1037.79,146.56,1033.14,145.7Z" fill="#603813"/><path d="M1033.14,205.7c-25.15-4.65-23.22-25.7-48.8-25.7s-25.57,25.91-51.15,25.91S907.61,180,882,180s-25.58,25.91-51.16,25.91S805.29,180,779.72,180s-25.59,25.79-51,25.91c-25.41-.12-25.47-25.91-51-25.91s-25.58,25.91-51.16,25.91S601,180,575.42,180s-25.58,25.91-51.16,25.91S498.69,180,473.11,180H473c-25.58,0-25.58,25.91-51.16,25.91S396.29,180,370.72,180s-25.59,25.79-51,25.91c-25.41-.12-25.47-25.91-51-25.91s-25.58,25.91-51.16,25.91S192,180,166.42,180s-25.58,25.91-51.16,25.91S89.69,180,64.11,180s-23.65,21.05-48.8,25.7c-4.65.86-15.31-8-15.31-3.29l10.61,69.4c25.15,4.64,23.36-19.42,50.74-25.4,25-5.47,28.35,25.61,53.94,25.61s25.58-25.91,51.15-25.91S192,272,217.6,272s25.58-25.91,51.16-25.91,25.59,25.64,50.78,25.9h.38c25.19-.26,25.32-25.9,50.77-25.9S396.27,272,421.85,272c24.66,0,25.55-24.08,48.51-25.81v.2c.5-.11,1-.18,1.47-.26s.78,0,1.19,0c25.58,0,25.58,25.91,51.16,25.91h.12c25.58,0,25.58-25.91,51.15-25.91S601,272,626.6,272s25.58-25.91,51.16-25.91,25.59,25.64,50.78,25.9h.38c25.19-.26,25.32-25.9,50.77-25.9S805.27,272,830.85,272s25.58-25.91,51.16-25.91S907.59,272,933.17,272s28.94-31.08,53.93-25.61c27.39,6,25.59,30,50.75,25.4l10.6-69.4C1048.45,197.68,1037.79,206.56,1033.14,205.7Z" fill="#ff454c"/><path d="M1033.14,265.7c-25.15-4.65-23.22-25.7-48.8-25.7s-25.57,25.91-51.15,25.91S907.61,240,882,240s-25.58,25.91-51.16,25.91S805.29,240,779.72,240s-25.59,25.79-51,25.91c-25.41-.12-25.47-25.91-51-25.91s-25.58,25.91-51.16,25.91S601,240,575.42,240s-25.58,25.91-51.16,25.91S498.69,240,473.11,240H473c-25.58,0-25.58,25.91-51.16,25.91S396.29,240,370.72,240s-25.59,25.79-51,25.91c-25.41-.12-25.47-25.91-51-25.91s-25.58,25.91-51.16,25.91S192,240,166.42,240s-25.58,25.91-51.16,25.91S89.69,240,64.11,240s-23.65,21.05-48.8,25.7c-4.65.86-15.31-8-15.31-3.29l10.61,69.4c25.15,4.64,23.36-19.42,50.74-25.4,25-5.47,28.35,25.61,53.94,25.61s25.58-25.91,51.15-25.91S192,332,217.6,332s25.58-25.91,51.16-25.91,25.59,25.64,50.78,25.9h.38c25.19-.26,25.32-25.9,50.77-25.9S396.27,332,421.85,332c24.66,0,25.55-24.08,48.51-25.81v.2c.5-.11,1-.18,1.47-.26s.78,0,1.19,0c25.58,0,25.58,25.91,51.16,25.91h.12c25.58,0,25.58-25.91,51.15-25.91S601,332,626.6,332s25.58-25.91,51.16-25.91,25.59,25.64,50.78,25.9h.38c25.19-.26,25.32-25.9,50.77-25.9S805.27,332,830.85,332s25.58-25.91,51.16-25.91S907.59,332,933.17,332s28.94-31.08,53.93-25.61c27.39,6,25.59,30,50.75,25.4l10.6-69.4C1048.45,257.68,1037.79,266.56,1033.14,265.7Z" fill="#fcee21"/><path d="M1033.14,325.7c-25.15-4.65-23.22-25.7-48.8-25.7s-25.57,25.91-51.15,25.91S907.61,300,882,300s-25.58,25.91-51.16,25.91S805.29,300,779.72,300s-25.59,25.79-51,25.91c-25.41-.12-25.47-25.91-51-25.91s-25.58,25.91-51.16,25.91S601,300,575.42,300s-25.58,25.91-51.16,25.91S498.69,300,473.11,300H473c-25.58,0-25.58,25.91-51.16,25.91S396.29,300,370.72,300s-25.59,25.79-51,25.91c-25.41-.12-25.47-25.91-51-25.91s-25.58,25.91-51.16,25.91S192,300,166.42,300s-25.58,25.91-51.16,25.91S89.69,300,64.11,300s-23.65,21.05-48.8,25.7c-4.65.86-15.31-8-15.31-3.29l10.61,69.4c25.15,4.64,23.36-19.42,50.74-25.4,25-5.47,28.35,25.61,53.94,25.61s25.58-25.91,51.15-25.91S192,392,217.6,392s25.58-25.91,51.16-25.91,25.59,25.64,50.78,25.9h.38c25.19-.26,25.32-25.9,50.77-25.9S396.27,392,421.85,392c24.66,0,25.55-24.08,48.51-25.81v.2c.5-.11,1-.18,1.47-.26s.78,0,1.19,0c25.58,0,25.58,25.91,51.16,25.91h.12c25.58,0,25.58-25.91,51.15-25.91S601,392,626.6,392s25.58-25.91,51.16-25.91,25.59,25.64,50.78,25.9h.38c25.19-.26,25.32-25.9,50.77-25.9S805.27,392,830.85,392s25.58-25.91,51.16-25.91S907.59,392,933.17,392s28.94-31.08,53.93-25.61c27.39,6,25.59,30,50.75,25.4l10.6-69.4C1048.45,317.68,1037.79,326.56,1033.14,325.7Z" fill="#c6833f"/><path d="M1033.14,25.7C1008,21.05,1009.92,0,984.34,0s-25.57,25.91-51.15,25.91S907.61,0,882,0s-25.58,25.91-51.16,25.91S805.29,0,779.72,0s-25.59,25.79-51,25.91C703.32,25.79,703.26,0,677.74,0s-25.58,25.91-51.16,25.91S601,0,575.42,0s-25.58,25.91-51.16,25.91S498.69,0,473.11,0H473c-25.58,0-25.58,25.91-51.16,25.91S396.29,0,370.72,0s-25.59,25.79-51,25.91C294.32,25.79,294.26,0,268.74,0s-25.58,25.91-51.16,25.91S192,0,166.42,0s-25.58,25.91-51.16,25.91S89.69,0,64.11,0,40.46,21.05,15.31,25.7C10.66,26.56,0,17.68,0,22.41l10.61,69.4C35.76,96.45,34,72.39,61.35,66.41,86.35,60.94,89.7,92,115.29,92s25.58-25.91,51.15-25.91S192,92,217.6,92s25.58-25.91,51.16-25.91S294.35,91.75,319.54,92h.38c25.19-.26,25.32-25.9,50.77-25.9S396.27,92,421.85,92c24.66,0,25.55-24.08,48.51-25.81v.2c.5-.11,1-.18,1.47-.26s.78,0,1.19,0c25.58,0,25.58,25.91,51.16,25.91h.12c25.58,0,25.58-25.91,51.15-25.91S601,92,626.6,92s25.58-25.91,51.16-25.91S703.35,91.75,728.54,92h.38c25.19-.26,25.32-25.9,50.77-25.9S805.27,92,830.85,92,856.43,66.11,882,66.11,907.59,92,933.17,92s28.94-31.08,53.93-25.61c27.39,6,25.59,30,50.75,25.4l10.6-69.4C1048.45,17.68,1037.79,26.56,1033.14,25.7Z" fill="#c6833f"/></g></g></svg>