<svg xmlns="http://www.w3.org/2000/svg" viewBox="0 0 290.65 256.25"><path d="M40.28 104.37a8.23 8.23 0 0 1-8.22-8.87c4.55-55.93 52.06-92.13 110-92.13s105.45 36.2 110 92.13a8.22 8.22 0 0 1-8.21 8.87zM28 123.07c14.26 0 14.26 9.36 28.52 9.36s14.26-9.36 28.52-9.36 14.26 9.36 28.52 9.36 14.26-9.36 28.52-9.36 14.27 9.36 28.53 9.36 14.26-9.36 28.52-9.36 14.27 9.36 28.53 9.36 14.26-9.36 28.53-9.36M239.93 143.47A20.08 20.08 0 0 1 260 163.54a20.08 20.08 0 0 1-20.08 20.08H44.19a20.08 20.08 0 0 1-20.07-20.08 20.08 20.08 0 0 1 20.07-20.07h80.38s30.46-1.76 48.1 20.15c11.06 13.75 17.64-20.31 42.22-20.31s25.04.16 25.04.16zM27.26 122.84a14.5 14.5 0 0 1 0-29M256.86 122.84a14.5 14.5 0 1 0 0-29M29.85 205.48c14 0 14 9.2 28.05 9.2s14-9.2 28.05-9.2 14 9.2 28.05 9.2 14-9.2 28.05-9.2 14 9.2 28.06 9.2 14-9.2 28-9.2 14 9.2 28.06 9.2 14-9.2 28.05-9.2M29.16 205.25a14.26 14.26 0 0 1 0-28.51M255 205.25a14.26 14.26 0 1 0 0-28.51" fill="none" stroke="#494537" stroke-linecap="round" stroke-linejoin="round" stroke-width="6.73"/><path d="M252 207.65v18.67a26.56 26.56 0 0 1-26.56 26.56H59.21a26.56 26.56 0 0 1-26.56-26.56v-18.67M32.76 123.27L3.37 148.93a192.89 192.89 0 0 1 43.82-5.35M259.27 122.59s26.83 23.13 27.9 24.73-5.19-3.86-48.83-3.86" fill="none" stroke="#494537" stroke-linecap="round" stroke-linejoin="round" stroke-width="6.73"/><circle cx="145.11" cy="68.13" r="5.82" fill="#494537"/><circle cx="86.92" cy="49.58" r="5.82" fill="#494537"/><circle cx="124.74" cy="49.58" r="5.82" fill="#494537"/><circle cx="105.47" cy="68.13" r="5.82" fill="#494537"/><path d="M170.55 25.55s36.59 9.58 57.45 48.78" fill="none" stroke="#494537" stroke-linecap="round" stroke-linejoin="round" stroke-width="6.73"/></svg>