<svg xmlns="http://www.w3.org/2000/svg" viewBox="0 0 344.46 306.81"><defs><clipPath id="a"><path data-name="&lt;Rectangle&gt;" fill="none" stroke="#494537" stroke-linecap="round" stroke-linejoin="round" stroke-width="3.95" d="M215.12 64.47h68.21v68.21h-68.21z"/></clipPath></defs><g data-name="Calque 2"><path d="M27.58 125.41a4.83 4.83 0 0 1-4.82-5.21c2.67-32.85 30.58-54.12 64.61-54.12S149.3 87.35 152 120.2a4.84 4.84 0 0 1-4.83 5.21zM20.35 136.39c8.38 0 8.38 5.5 16.75 5.5s8.38-5.5 16.76-5.5 8.37 5.5 16.75 5.5 8.37-5.5 16.75-5.5 8.37 5.5 16.75 5.5 8.38-5.5 16.76-5.5 8.38 5.5 16.75 5.5 8.38-5.5 16.76-5.5M144.85 148.37a11.79 11.79 0 0 1 11.79 11.79A11.79 11.79 0 0 1 144.85 172h-115a11.79 11.79 0 0 1-11.79-11.79 11.79 11.79 0 0 1 11.79-11.79h47.24s17.9-1 28.25 11.84c6.5 8.07 10.36-11.93 24.8-11.93s14.71.04 14.71.04zM19.94 136.26a8.52 8.52 0 0 1 0-17M154.79 136.26a8.52 8.52 0 1 0 0-17M21.46 184.8c8.24 0 8.24 5.4 16.48 5.4s8.23-5.4 16.47-5.4 8.24 5.4 16.48 5.4 8.23-5.4 16.47-5.4 8.24 5.4 16.48 5.4 8.23-5.4 16.47-5.4 8.24 5.4 16.48 5.4 8.24-5.4 16.48-5.4M21.06 184.66a8.38 8.38 0 1 1 0-16.75M153.68 184.66a8.38 8.38 0 0 0 0-16.75" fill="none" stroke="#494537" stroke-linecap="round" stroke-linejoin="round" stroke-width="3.95"/><path d="M151.93 186.07v11a15.61 15.61 0 0 1-15.6 15.6H38.7A15.61 15.61 0 0 1 23.1 197v-11M23.17 136.51L5.91 151.58a113.28 113.28 0 0 1 25.74-3.14M156.21 136.11s15.79 13.58 16.39 14.53-3-2.27-28.68-2.27" fill="none" stroke="#494537" stroke-linecap="round" stroke-linejoin="round" stroke-width="3.95"/><circle cx="89.16" cy="104.12" r="3.42" fill="#494537"/><circle cx="54.98" cy="93.23" r="3.42" fill="#494537"/><circle cx="77.2" cy="93.23" r="3.42" fill="#494537"/><circle cx="65.87" cy="104.12" r="3.42" fill="#494537"/><path d="M104.1 79.11s21.49 5.63 33.77 28.66M86.58 213.2v66.72M130.16 304.83a49.81 49.81 0 0 0-86.28 0z" fill="none" stroke="#494537" stroke-linecap="round" stroke-linejoin="round" stroke-width="3.95"/><circle cx="120.59" cy="216.53" r=".75" fill="#494537"/><circle cx="120.59" cy="219.77" r=".75" fill="#494537"/><circle cx="120.59" cy="223" r=".75" fill="#494537"/><circle cx="120.59" cy="226.24" r=".75" fill="#494537"/><circle cx="120.59" cy="229.47" r=".75" fill="#494537"/><circle cx="120.59" cy="232.71" r=".75" fill="#494537"/><circle cx="120.59" cy="235.94" r=".75" fill="#494537"/><circle cx="120.59" cy="239.17" r=".75" fill="#494537"/><circle cx="120.59" cy="245.56" r="3.02" fill="#ff0019"/><path fill="none" stroke="#494537" stroke-linecap="round" stroke-linejoin="round" stroke-width="3.95" d="M297.66 304.83H1.98M184.64 258.69v27.76A15.36 15.36 0 0 0 200 301.81h17.83a15.36 15.36 0 0 0 15.36-15.36v-27.76zM233.19 270a10.28 10.28 0 1 1 0 20.56M198.31 47.65h101.84v101.84H198.31z"/><g clip-path="url(#a)"><path d="M176 124.54c-1.5 1-.59-9-1.88-10.27s-8.39 5.81-9.68 4.52 5.8-8.39 4.51-9.69-8.39 5.81-9.69 4.52 5.81-8.4 4.52-9.69-8.4 5.8-9.69 4.51 4-1.79 5.09-3.3c5.61-8.16-.68-13.4 6.32-20.4s14.11.09 21.11-6.92-.09-14.1 6.91-21.1 14.11.09 21.12-6.92-.1-14.1 6.91-21.1 14.1.08 21.11-6.92-.55-16.08 7.61-21.71c1.51-1 .59 9 1.88 10.27s8.39-5.81 9.68-4.52-5.8 8.39-4.51 9.69S265.71 9.7 267 11s-5.81 8.39-4.51 9.68 8.39-5.8 9.69-4.51-4.06 1.79-5.1 3.3c-5.61 8.16.68 13.4-6.32 20.4s-14.11-.09-21.11 6.92.09 14.1-6.91 21.11-14.11-.1-21.11 6.91.09 14.1-6.91 21.11-16.44-.59-21.8 7.76c-5.85 9.14 1.23 15.23-6.92 20.86zM248.06 196.61c-1.5 1-.59-9-1.88-10.26s-8.39 5.8-9.68 4.51 5.81-8.39 4.51-9.68-8.39 5.8-9.68 4.51 5.8-8.39 4.51-9.69-8.4 5.81-9.69 4.51 4-1.79 5.09-3.3c5.62-8.16-.68-13.4 6.33-20.4s14.1.09 21.11-6.91-.1-14.11 6.91-21.11 14.1.09 21.11-6.92-.1-14.1 6.91-21.1 14.11.09 21.11-6.92-.54-16.08 7.63-21.7c1.5-1 .58 9 1.87 10.26s8.39-5.81 9.69-4.52-5.81 8.4-4.52 9.69 8.4-5.81 9.69-4.51-5.8 8.39-4.51 9.68 8.39-5.8 9.69-4.5-4.06 1.78-5.09 3.29c-5.62 8.17.68 13.4-6.33 20.41s-14.1-.1-21.11 6.91.09 14.1-6.91 21.11-14.1-.09-21.11 6.91.09 14.12-6.91 21.12-16.44-.59-21.79 7.76c-5.87 9.13 1.21 15.24-6.95 20.85z" fill="#c6833f"/><path d="M189.67 137.89c-1.09.83-.45-8.51-1.41-9.47s-8.06 6.14-9 5.18 6.13-8.06 5.17-9-8.06 6.14-9 5.17 6.14-8.06 5.17-9-8.06 6.13-9 5.16 4.8-1.36 5.62-2.44c6-7.9-.54-13.59 6.46-20.6s14.11.1 21.11-6.91-.09-14.1 6.91-21.11 14.11.1 21.11-6.91-.09-14.1 6.91-21.11 14.11.09 21.12-6.92-.46-15.57 7.44-21.56c1.08-.82.44 8.51 1.4 9.47s8.06-6.14 9-5.18-6.14 8.07-5.18 9 8.07-6.14 9-5.17-6.13 8.06-5.17 9 8.06-6.13 9-5.16-4.8 1.36-5.62 2.45c-6 7.89.54 13.58-6.46 20.59s-14.1-.1-21.11 6.91.09 14.1-6.91 21.11-14.11-.1-21.11 6.91.09 14.1-6.91 21.11-16.32-.57-21.76 7.71c-5.88 8.96 1.11 14.78-6.78 20.77z" fill="#b1e319"/><path d="M203.16 151.38c-1.09.83-.45-8.5-1.41-9.47s-8.06 6.14-9 5.18 6.13-8.06 5.17-9-8.06 6.14-9 5.17 6.14-8.06 5.17-9-8.06 6.13-9 5.17 4.8-1.37 5.62-2.45c6-7.9-.54-13.59 6.46-20.59s14.11.09 21.11-6.92-.09-14.1 6.91-21.1 14.11.09 21.11-6.92-.09-14.1 6.91-21.11 14.11.09 21.12-6.92-.46-15.57 7.44-21.56c1.08-.82.44 8.51 1.4 9.47s8.06-6.14 9-5.18-6.14 8.07-5.17 9 8-6.15 9-5.15-6.13 8.06-5.17 9 8.06-6.14 9-5.17-4.79 1.36-5.62 2.45c-6 7.89.55 13.58-6.46 20.59s-14.1-.1-21.11 6.91.09 14.1-6.91 21.11-14.1-.09-21.11 6.91.09 14.1-6.91 21.11-16.32-.57-21.76 7.71c-5.89 8.95 1.1 14.77-6.79 20.76z" fill="#603813"/><path d="M216.65 164.88c-1.08.82-.45-8.51-1.41-9.47s-8.06 6.13-9 5.17 6.13-8.06 5.17-9-8.06 6.14-9 5.17 6.14-8.06 5.17-9-8.06 6.13-9 5.17 4.8-1.36 5.62-2.45c6-7.9-.54-13.59 6.46-20.59s14.11.09 21.11-6.92-.09-14.1 6.91-21.1 14.11.09 21.12-6.92-.1-14.1 6.91-21.1 14.1.08 21.11-6.92-.46-15.58 7.44-21.57c1.08-.82.44 8.51 1.4 9.47s8.07-6.14 9-5.17-6.14 8.06-5.17 9 8.06-6.13 9-5.17-6.13 8.06-5.17 9 8.07-6.14 9-5.17-4.79 1.36-5.62 2.45c-6 7.89.55 13.58-6.46 20.59s-14.1-.09-21.11 6.91.1 14.1-6.91 21.11-14.1-.09-21.11 6.91.09 14.11-6.91 21.11-16.32-.57-21.76 7.71c-5.89 8.97 1.1 14.78-6.79 20.78z" fill="#ff454c"/><path d="M230.14 178.37c-1.08.82-.45-8.51-1.41-9.47s-8.06 6.13-9 5.17 6.13-8.06 5.17-9-8.06 6.13-9 5.17 6.14-8.07 5.18-9-8.07 6.13-9 5.17 4.79-1.36 5.61-2.45c6-7.9-.54-13.59 6.47-20.59s14.1.09 21.11-6.92-.1-14.1 6.91-21.1 14.1.09 21.11-6.92-.1-14.1 6.91-21.1 14.1.09 21.11-6.92-.46-15.58 7.44-21.57c1.08-.82.44 8.51 1.41 9.47s8.06-6.14 9-5.17-6.14 8.06-5.17 9S322 66 323 66.94s-6.13 8.06-5.17 9 8.07-6.14 9-5.17-4.79 1.36-5.62 2.45c-6 7.89.55 13.58-6.46 20.59s-14.1-.09-21.11 6.91.1 14.11-6.91 21.11-14.1-.09-21.11 6.91.1 14.11-6.91 21.11-16.32-.57-21.76 7.71c-5.95 9 1.05 14.82-6.81 20.81z" fill="#fcee21"/></g><path data-name="&lt;Rectangle&gt;" fill="none" stroke="#494537" stroke-linecap="round" stroke-linejoin="round" stroke-width="3.95" d="M215.12 64.47h68.21v68.21h-68.21z"/><path d="M198.31 47.65l46.05-32.48a8.6 8.6 0 0 1 9.75 0l46 32.48" fill="none" stroke="#494537" stroke-linecap="round" stroke-linejoin="round" stroke-width="3.95"/></g></svg>