<svg xmlns="http://www.w3.org/2000/svg" viewBox="0 0 279 459.19"><g data-name="Calque 2"><path fill="none" stroke="#494537" stroke-linecap="round" stroke-linejoin="round" stroke-width="3.95" d="M1.98 456.82V55.95M13.65 444.28H3.71M13.65 417.04H3.71M13.65 389.79H3.71M13.65 362.55H3.71M13.65 335.31H3.71M13.65 308.06H3.71M13.65 280.82H3.71M13.65 253.58H3.71M13.65 226.33H3.71M13.65 199.09H3.71M13.65 171.85H3.71M13.65 144.6H3.71M13.65 117.36H3.71M13.65 90.12H3.71M13.65 62.87H3.71"/><path d="M102.39 116.22A5.81 5.81 0 0 1 96.6 110c3.21-39.45 36.72-65 77.59-65s74.38 25.54 77.59 65a5.8 5.8 0 0 1-5.79 6.26zM93.71 365.26c10.06 0 10.06 6.59 20.12 6.59s10.06-6.59 20.12-6.59 10.06 6.59 20.12 6.59 10.06-6.59 20.12-6.59 10.06 6.59 20.11 6.59 10.07-6.59 20.13-6.59 10.06 6.59 20.12 6.59 10.06-6.59 20.12-6.59M243.23 379.64a14.16 14.16 0 0 1 14.16 14.16 14.16 14.16 0 0 1-14.16 14.2H105.16A14.16 14.16 0 0 1 91 393.8a14.16 14.16 0 0 1 14.16-14.16h56.69s21.49-1.24 33.93 14.22c7.81 9.7 12.44-14.33 29.78-14.33s17.67.11 17.67.11zM93.22 365.09a10.23 10.23 0 1 1 0-20.45M255.17 365.09a10.23 10.23 0 0 0 0-20.45M95 423.38c9.89 0 9.89 6.49 19.79 6.49s9.89-6.49 19.78-6.49 9.89 6.49 19.79 6.49 9.89-6.49 19.79-6.49 9.89 6.49 19.78 6.49 9.9-6.49 19.79-6.49 9.9 6.49 19.79 6.49 9.9-6.49 19.79-6.49M94.56 423.22a10.06 10.06 0 1 1 0-20.11M253.83 423.22a10.06 10.06 0 0 0 0-20.11" fill="none" stroke="#494537" stroke-linecap="round" stroke-linejoin="round" stroke-width="4.75"/><path d="M251.72 424.91v13.17A18.73 18.73 0 0 1 233 456.82H115.75A18.73 18.73 0 0 1 97 438.08v-13.17M97.1 365.4l-20.74 18.09a136.23 136.23 0 0 1 30.91-3.77M256.87 364.91s18.92 16.32 19.68 17.45-3.67-2.72-34.44-2.72M93.71 306.09c10.06 0 10.06 6.6 20.12 6.6s10.06-6.6 20.12-6.6 10.06 6.6 20.12 6.6 10.06-6.6 20.12-6.6 10.06 6.6 20.11 6.6 10.07-6.6 20.13-6.6 10.06 6.6 20.12 6.6 10.06-6.6 20.12-6.6M243.23 320.48a14.16 14.16 0 0 1 14.16 14.16 14.16 14.16 0 0 1-14.16 14.16H105.16A14.16 14.16 0 0 1 91 334.64a14.16 14.16 0 0 1 14.16-14.16h56.69s21.49-1.24 33.93 14.22c7.81 9.69 12.44-14.33 29.78-14.33s17.67.11 17.67.11zM93.22 305.93a10.23 10.23 0 1 1 0-20.45M255.17 305.93a10.23 10.23 0 0 0 0-20.45" fill="none" stroke="#494537" stroke-linecap="round" stroke-linejoin="round" stroke-width="4.75"/><path d="M97.1 306.23l-20.74 18.1a136.23 136.23 0 0 1 30.91-3.77M256.87 305.75s18.92 16.32 19.68 17.45-3.67-2.73-34.44-2.73M93.71 246.93c10.06 0 10.06 6.6 20.12 6.6s10.06-6.6 20.12-6.6 10.06 6.6 20.12 6.6 10.06-6.6 20.12-6.6 10.06 6.6 20.11 6.6 10.07-6.6 20.13-6.6 10.06 6.6 20.12 6.6 10.06-6.6 20.12-6.6M243.23 261.32a14.16 14.16 0 0 1 14.16 14.16 14.16 14.16 0 0 1-14.16 14.16H105.16A14.16 14.16 0 0 1 91 275.48a14.16 14.16 0 0 1 14.16-14.16h56.69s21.49-1.24 33.93 14.21c7.81 9.7 12.44-14.32 29.78-14.32s17.67.11 17.67.11zM93.22 246.77a10.23 10.23 0 1 1 0-20.45M255.17 246.77a10.23 10.23 0 0 0 0-20.45" fill="none" stroke="#494537" stroke-linecap="round" stroke-linejoin="round" stroke-width="4.75"/><path d="M97.1 247.07l-20.74 18.1a136.23 136.23 0 0 1 30.91-3.77M256.87 246.59s18.92 16.32 19.68 17.45-3.67-2.73-34.44-2.73M93.71 187.77c10.06 0 10.06 6.6 20.12 6.6s10.06-6.6 20.12-6.6 10.06 6.6 20.12 6.6 10.06-6.6 20.12-6.6 10.06 6.6 20.11 6.6 10.07-6.6 20.13-6.6 10.06 6.6 20.12 6.6 10.06-6.6 20.12-6.6M243.23 202.15a14.16 14.16 0 0 1 14.16 14.17 14.16 14.16 0 0 1-14.16 14.16H105.16A14.16 14.16 0 0 1 91 216.32a14.16 14.16 0 0 1 14.16-14.17h56.69s21.49-1.23 33.93 14.22c7.81 9.7 12.44-14.32 29.78-14.32s17.67.1 17.67.1zM93.22 187.6a10.22 10.22 0 1 1 0-20.44M255.17 187.6a10.22 10.22 0 0 0 0-20.44" fill="none" stroke="#494537" stroke-linecap="round" stroke-linejoin="round" stroke-width="4.75"/><path d="M97.1 187.91L76.36 206a136.23 136.23 0 0 1 30.91-3.77M256.87 187.43s18.92 16.31 19.68 17.44-3.67-2.72-34.44-2.72M93.71 128.61c10.06 0 10.06 6.59 20.12 6.59s10.06-6.59 20.12-6.59 10.06 6.59 20.12 6.59 10.06-6.59 20.12-6.59 10.06 6.59 20.11 6.59 10.07-6.59 20.13-6.59 10.06 6.59 20.12 6.59 10.06-6.59 20.12-6.59M243.23 143a14.16 14.16 0 0 1 14.16 14.16 14.16 14.16 0 0 1-14.16 14.16H105.16A14.16 14.16 0 0 1 91 157.15 14.16 14.16 0 0 1 105.16 143h56.69s21.49-1.24 33.93 14.22c7.81 9.7 12.44-14.33 29.78-14.33s17.67.11 17.67.11zM93.22 128.44a10.23 10.23 0 1 1 0-20.45M255.17 128.44a10.23 10.23 0 0 0 0-20.45" fill="none" stroke="#494537" stroke-linecap="round" stroke-linejoin="round" stroke-width="4.75"/><path d="M97.1 128.75l-20.74 18.09a136.23 136.23 0 0 1 30.91-3.77M256.87 128.26s18.92 16.32 19.68 17.45-3.67-2.71-34.44-2.71" fill="none" stroke="#494537" stroke-linecap="round" stroke-linejoin="round" stroke-width="4.75"/><circle cx="176.34" cy="90.66" r="4.1" fill="#494537"/><circle cx="135.29" cy="77.57" r="4.1" fill="#494537"/><circle cx="161.98" cy="77.57" r="4.1" fill="#494537"/><circle cx="148.38" cy="90.66" r="4.1" fill="#494537"/><path d="M194.28 60.62s25.81 6.76 40.56 34.38" fill="none" stroke="#494537" stroke-linecap="round" stroke-linejoin="round" stroke-width="4.75"/><path fill="#ff0019" d="M176.76 2.37h32.23V23.8h-32.23z"/><path fill="none" stroke="#494537" stroke-linecap="round" stroke-linejoin="round" stroke-width="4.75" d="M176.34 53.62V2.37"/></g></svg>