<svg xmlns="http://www.w3.org/2000/svg" viewBox="0 0 111.97 88.71"><path d="M20.63 20.89q-7.9 9.88-7.91 20a23.75 23.75 0 0 0 1 7.39 20.92 20.92 0 0 1 13.07-4.64 22.45 22.45 0 0 1 16.07 6.1q6.45 6.1 6.45 16.42a21.67 21.67 0 0 1-6.53 16.07 21.91 21.91 0 0 1-16 6.45Q13.23 88.71 6 77.53q-6-9.28-6-23.2a57.27 57.27 0 0 1 9-31.72Q18 8.6 36.27 0l3.27 6.36a47.8 47.8 0 0 0-18.91 14.53zM83.27 20.89q-7.92 9.88-7.91 20a23.46 23.46 0 0 0 1 7.39 20.9 20.9 0 0 1 13.06-4.64 22.48 22.48 0 0 1 16.08 6.1q6.5 6.14 6.5 16.45a21.64 21.64 0 0 1-6.53 16.07 21.87 21.87 0 0 1-16 6.45q-13.58 0-20.8-11.18-6-9.28-6-23.2a57.26 57.26 0 0 1 9-31.72q9-14 27.25-22.61l3.27 6.36a47.8 47.8 0 0 0-18.92 14.53z" fill="#ff0019"/></svg>