<svg xmlns="http://www.w3.org/2000/svg" viewBox="0 0 111.97 88.71"><path d="M91.34 67.82q7.92-9.88 7.91-20a23.41 23.41 0 0 0-1-7.39A21 21 0 0 1 85.16 45a22.52 22.52 0 0 1-16.08-6.1q-6.45-6.11-6.44-16.42a21.62 21.62 0 0 1 6.53-16.03A21.89 21.89 0 0 1 85.16 0Q98.73 0 106 11.17q6 9.28 6 23.21a57.26 57.26 0 0 1-9 31.72q-9 14-27.25 22.61l-3.27-6.36a47.73 47.73 0 0 0 18.86-14.53zM28.71 67.82q7.9-9.88 7.91-20a23.7 23.7 0 0 0-1-7.39A21 21 0 0 1 22.52 45a22.48 22.48 0 0 1-16.07-6.1Q0 32.83 0 22.52A21.66 21.66 0 0 1 6.53 6.45 21.91 21.91 0 0 1 22.52 0q13.59 0 20.8 11.17 6 9.28 6 23.21a57.27 57.27 0 0 1-9 31.72q-9 14-27.24 22.61L9.8 82.35a47.87 47.87 0 0 0 18.91-14.53z" fill="#ff0019"/></svg>