<svg xmlns="http://www.w3.org/2000/svg" viewBox="0 0 55.46 81.37"><title>shape-2</title><g id="Calque_2" data-name="Calque 2"><g id="Parallax"><path d="M6.45,29.43,3.39,41.82,1.63,49.25l4.3.39a28.23,28.23,0,0,1,2.93-2.41c.59-.26,5.41-1.76,7-2.15s6.26-2.16,6.26-2.16L17,51.79S10.1,62.22,10,62.41a48.15,48.15,0,0,1-3.65,8.93C4.5,74.4,0,81.37,0,81.37L15.31,67.82s.92-4.24,3.85-6.26S24.44,56.28,27,54s6.91-7.62,9.25-10.29,3.52-6.09,7.17-8.65,8.21-8,8.21-8L45.75,28.2c-.33.06-12.12,2.41-13.62,3.19s3.91-3.71,4.95-5.34-.32-2.22,4.56-6.26,5.61-6.39,8.74-10.36a49.13,49.13,0,0,0,5.08-8.08S48.88-.28,47.9,0s-14.6,4.3-16.42,4.5-10,.33-12.06.91l-5.28,11S11,21.09,10.75,21.87s-.65,3-1,4.11S6.45,29.43,6.45,29.43Z" fill="#f8acff"/></g></g></svg>