<svg xmlns="http://www.w3.org/2000/svg" viewBox="0 0 34.33 62.88"><title>shape-3</title><g id="Calque_2" data-name="Calque 2"><g id="Parallax"><path d="M3.57,40S14.45,54.7,14.79,55s7.69,7.18,8,7.84S27,59,27,59l7.35-7.4s-1.5-7.61-1.75-7.81-6.26-10.32-6.26-10.32L22.91,23.2s-5.75,3-6.4,4.14S3.57,40,3.57,40Z" fill="#f8acff"/><path d="M0,33.79l2.15,2.84L9,29.83s11.25-8.64,12.5-9.51,1.76-4.41,1.76-4.41-2.89-.8-3.41-.11S9.81,24.2,9.52,24.38,5,28.1,3.87,29A37.47,37.47,0,0,0,0,33.79Z" fill="#f8acff"/><polygon points="9.37 27.19 4.54 14.15 16.78 0 18.14 2.62 6.57 14.4 10.77 26.09 9.37 27.19" fill="#f8acff"/></g></g></svg>