<svg xmlns="http://www.w3.org/2000/svg" viewBox="0 0 59.27 69.53"><title>shape-1</title><g id="Calque_2" data-name="Calque 2"><g id="Parallax"><path d="M9.87,36.2l4.38,16.73,6.1,9.84,1.9,6,21.35.72,9.33-7.3.26-13.17.45-11.43-2.36-7.35L50,28S46.16,29,45.65,29.87a45.6,45.6,0,0,1-5.71,5.58c-1.46,1.11-2.38,1.1-5.52,2a25.53,25.53,0,0,1-9.14.77c-1.94-.27-14.62-2.6-14.62-2.6Z" fill="#f8acff"/><path d="M12.58,33.52,6.47,20.35l.72-6.68L11,15.84s2,3.89,1.86,5.22,1,8.29,1.25,9.68.63,3.39.63,3.39Z" fill="#f8acff"/><path d="M11,34.23,7.09,28.67l-5.9-4.34L0,26.44s1.67,2.88,2.77,3.17,1,.75,3.36,1.89a6.49,6.49,0,0,1,3.06,2.65C9.52,34.46,11,34.23,11,34.23Z" fill="#f8acff"/><path d="M16.27,33.71l.11-13.22s.84-10.82.84-11a47.81,47.81,0,0,1,4-3.75,23.36,23.36,0,0,1,2.91.12L23.67,9.3s-1.1,4.69-1.52,5.09-.72.72-1.58,5.62-2.05,7-2,9.66a5.92,5.92,0,0,1-1,3.85Z" fill="#f8acff"/><path d="M50.9,26.55l7.71-9.91.66-6.72L54.2,8.48s1.65,2.21.88,3.75-2.75,6.27-3.19,7.49-2.1,5.07-2.1,5.07Z" fill="#f8acff"/><path d="M22.14,33.71s.28-14.87,2-16.19,3.77-9,4.43-9.92S31.06,0,31.06,0a26.08,26.08,0,0,1,3.53,1c.55.33-.66,6-1,6.94s-2.54,4.74-3.31,9.59a121,121,0,0,1-2.86,13c-.55,1.65-1.65,5.29-1.65,5.29Z" fill="#f8acff"/><path d="M31.75,33.71c-.13-.66,0-12,0-12l.64-6.06,3.74-2s-.33,5.28,0,6.6-.77,9.92-.66,11.13-.49,1.85-.74,2.91-3-.18-3-.18Z" fill="#f8acff"/><path d="M38.89,2.64l4-.55L43.4,11A68.47,68.47,0,0,0,42,21.37c0,3.64-1,8.71-.82,9.26s-1.82,3.08-1.82,3.08L38.89,32V2.64Z" fill="#f8acff"/><polygon points="14.21 14.76 14.21 6.39 10.62 5.72 12.88 14.76 14.21 14.76" fill="#f8acff"/><polygon points="44.84 14.32 53.64 3.19 48.25 0 44.84 10.8 44.84 14.32" fill="#f8acff"/><polygon points="43.84 29.32 46.38 21.04 50.46 13 52.77 13.67 49.8 20.49 47.59 25.67 45.39 27.95 43.84 29.32" fill="#f8acff"/></g></g></svg>