<svg xmlns="http://www.w3.org/2000/svg" viewBox="0 0 61.31 68.88"><title>shape-4</title><g id="Calque_2" data-name="Calque 2"><g id="Parallax"><path d="M13.64,47.79,25.08,59.53l9.62,5.26,4.4,4.09L57,59.49,61.31,49.1l-6-11-5-9.63L45,23.54l-2.15-1.32s-2.65,2.69-2.68,3.62a42.44,42.44,0,0,1-2.09,7.26c-.7,1.6-1.46,2-3.61,4.26a24.29,24.29,0,0,1-7.17,4.91C25.58,43,14,47,14,47Z" fill="#f8acff"/><path d="M14.62,44.32l-11.2-8L.89,30.48l4.18,0s3.45,2.29,4,3.44,4.72,6.35,5.56,7.39,2.1,2.5,2.1,2.5Z" fill="#f8acff"/><path d="M13.64,45.65,7.83,42.88l-6.9-.81v2.3S3.66,46,4.71,45.68s1.14.17,3.65,0a6.14,6.14,0,0,1,3.76.76C12.54,46.52,13.64,45.65,13.64,45.65Z" fill="#f8acff"/><path d="M17.75,42.74,11.65,31.8s-4.36-9.31-4.44-9.45a44.86,44.86,0,0,1,1.52-5,22.2,22.2,0,0,1,2.45-1.26l1.25,3s1.29,4.38,1.13,4.91-.26.94,1.32,5.37,1.59,6.73,2.85,8.92A5.63,5.63,0,0,1,18.68,42Z" fill="#f8acff"/><path d="M42.94,20.65,44.66,8.87,42.06,3,37.21,4.21s2.4,1,2.48,2.67.66,6.46.87,7.67.65,5.16.65,5.16Z" fill="#f8acff"/><path d="M22.59,40s-6.72-12.39-6-14.26-1.12-9.21-1-10.25S14.17,8,14.17,8a24.29,24.29,0,0,1,3.37-.83c.61,0,2.24,5.21,2.43,6.18s.13,5.09,1.76,9.45A114,114,0,0,1,25.46,34.9c.31,1.61,1.11,5.13,1.11,5.13Z" fill="#f8acff"/><path d="M30.51,35.5c-.42-.47-5.61-9.89-5.61-9.89l-2.32-5.29,2.17-3.38a40.11,40.11,0,0,0,3.09,5.44c.89.93,4,8.53,4.66,9.48s.46,1.75.75,2.74-2.54,1.24-2.54,1.24Z" fill="#f8acff"/><path d="M21.86,6.56l3-2.31,4.63,7.1a64.41,64.41,0,0,0,3.66,9.2c1.7,3,3.26,7.64,3.65,8S36.75,32,36.75,32l-1.18-1.23L32,24.43l-5.55-9.79Z" fill="#f8acff"/><polygon points="7.19 28.09 3.27 21.19 0 22.32 6.1 28.71 7.19 28.09" fill="#f8acff"/><polygon points="32.23 13.4 34.27 0.12 28.34 0 30.58 10.5 32.23 13.4" fill="#f8acff"/><polygon points="38.42 26.23 36.64 18.22 36.24 9.69 38.46 9.16 39.2 16.17 39.8 21.47 39.05 24.38 38.42 26.23" fill="#f8acff"/></g></g></svg>